<svg width="64" height="64" viewBox="0 0 64 64" fill="none" xmlns="http://www.w3.org/2000/svg">
<rect x="0.5" y="0.5" width="63" height="63" rx="15.5" fill="#0F172A"/>
<g clip-path="url(#clip0_526_131)">
<path d="M24.9413 31.6487C25.0201 31.866 25.0201 32.104 24.9413 32.3212L21.0663 43.66C20.997 43.8514 20.9878 44.0594 21.0399 44.2562C21.092 44.453 21.2029 44.6292 21.3578 44.7612C21.5127 44.8933 21.7042 44.975 21.9068 44.9953C22.1093 45.0156 22.3132 44.9736 22.4913 44.875L43.4913 32.8637C43.6476 32.7773 43.7779 32.6505 43.8686 32.4966C43.9593 32.3427 44.0072 32.1674 44.0072 31.9887C44.0072 31.8101 43.9593 31.6347 43.8686 31.4809C43.7779 31.327 43.6476 31.2002 43.4913 31.1137L22.4913 19.1325C22.3137 19.0331 22.11 18.9904 21.9074 19.0098C21.7048 19.0293 21.513 19.1102 21.3576 19.2415C21.2022 19.3729 21.0906 19.5486 21.0376 19.7451C20.9847 19.9416 20.9929 20.1496 21.0613 20.3412L24.9413 31.6487Z" stroke="#F8FAFC" stroke-width="2" stroke-linecap="round" stroke-linejoin="round"/>
<path d="M33 32H25" stroke="#F8FAFC" stroke-width="2" stroke-linecap="round" stroke-linejoin="round"/>
</g>
<rect x="0.5" y="0.5" width="63" height="63" rx="15.5" stroke="#334155"/>
<defs>
<clipPath id="clip0_526_131">
<rect width="32" height="32" fill="white" transform="translate(16 16)"/>
</clipPath>
</defs>
</svg>
